<?xml version="1.0" standalone="no"?>
<!DOCTYPE svg PUBLIC "-//W3C//DTD SVG 20010904//EN"
 "http://www.w3.org/TR/2001/REC-SVG-20010904/DTD/svg10.dtd">
<svg version="1.0" xmlns="http://www.w3.org/2000/svg"
 width="600.000000pt" height="600.000000pt" viewBox="0 0 600.000000 600.000000"
 preserveAspectRatio="xMidYMid meet">
<circle cx="300" cy="300" r="275" fill="white"/>
<g transform="translate(0.000000,600.000000) scale(0.100000,-0.100000)"
fill="#154734" stroke="none">
<path d="M2880 5774 c-670 -33 -1287 -291 -1784 -746 -745 -684 -1059 -1751
-806 -2743 231 -908 913 -1649 1795 -1952 149 -51 345 -99 506 -125 207 -32
609 -32 814 0 806 126 1488 561 1937 1237 88 133 228 409 282 556 340 927 176
1949 -437 2723 -96 121 -310 336 -427 430 -413 330 -912 540 -1422 600 -131
15 -351 25 -458 20z m-235 -995 c272 -286 385 -629 317 -961 l-18 -87 41 35
c211 183 436 298 685 351 118 24 372 24 490 0 117 -25 243 -69 342 -118 91
-45 210 -119 245 -152 l23 -20 -63 -27 c-145 -61 -273 -169 -482 -405 -287
-327 -409 -430 -559 -478 -90 -28 -257 -30 -356 -3 -88 24 -261 96 -267 112
-7 18 71 163 135 253 151 211 361 389 583 496 63 30 69 35 43 35 -18 0 -74
-11 -126 -24 -253 -64 -446 -180 -638 -382 -289 -305 -446 -762 -411 -1198 6
-68 20 -169 32 -223 39 -182 128 -422 206 -555 l35 -60 100 98 c142 141 306
326 508 573 184 226 287 338 538 591 85 85 161 169 168 186 10 24 12 61 8 141
l-6 108 32 48 c57 84 155 145 385 240 219 90 484 151 498 114 6 -17 14 -13
-213 -109 -181 -77 -379 -175 -423 -211 l-29 -23 20 -24 20 -24 148 71 c289
139 574 227 574 178 0 -20 -68 -53 -240 -115 -80 -29 -176 -68 -213 -87 -98
-49 -207 -121 -207 -136 0 -8 9 -22 21 -33 17 -16 23 -16 42 -5 12 8 73 40
137 72 258 129 542 218 557 173 2 -5 -74 -41 -169 -79 -95 -37 -214 -87 -264
-110 -102 -47 -234 -129 -234 -145 0 -13 39 -52 48 -48 4 2 59 29 122 60 201
100 535 217 575 202 38 -15 1 -42 -145 -109 -167 -76 -347 -168 -491 -251
-162 -94 -195 -100 -310 -60 -42 14 -83 26 -91 26 -52 0 -388 -312 -549 -510
-183 -225 -245 -333 -414 -720 -121 -275 -210 -459 -263 -539 -45 -67 -99 -94
-187 -94 -100 0 -182 57 -226 158 -11 28 -31 73 -44 100 -12 28 -48 124 -80
215 -154 440 -326 816 -534 1166 -137 230 -172 254 -380 254 -137 0 -195 12
-296 60 -99 48 -189 121 -281 231 -283 334 -383 684 -239 832 74 76 188 107
329 88 251 -33 526 -181 747 -400 169 -168 231 -275 232 -401 0 -74 -20 -128
-84 -226 -68 -105 -64 -154 22 -264 123 -159 235 -310 281 -380 28 -41 54 -79
58 -83 4 -4 2 21 -3 55 -17 106 -13 429 6 543 34 196 101 398 191 572 45 87
100 279 122 425 29 196 8 405 -51 508 -13 23 -13 19 -8 -45 6 -77 -10 -276
-33 -400 -27 -145 -56 -255 -66 -255 -18 0 -131 125 -167 184 -63 104 -83 178
-88 311 -6 142 7 210 90 500 30 105 58 210 62 235 12 83 13 83 43 61 15 -10
54 -48 87 -82z"/>
</g>
</svg>
